<?xml version="1.0" standalone="no"?><!DOCTYPE svg PUBLIC "-//W3C//DTD SVG 1.1//EN" "http://www.w3.org/Graphics/SVG/1.1/DTD/svg11.dtd"><svg t="1638952706428" class="icon" viewBox="0 0 1024 1024" version="1.1" xmlns="http://www.w3.org/2000/svg" p-id="8745" xmlns:xlink="http://www.w3.org/1999/xlink" width="200" height="200"><defs><style type="text/css"></style></defs><path d="M990.3 593.1c4.8-26.3 7.2-54.9 7.2-81.1 0-133.6-52.5-257.7-145.6-350.8-95.5-95.5-219.5-148-353.2-148-133.6 0-257.7 52.5-353.2 145.6C50.1 251.9 0 376 0 509.6c0 69.2 14.3 133.6 38.2 195.7C62 762.6 97.8 817.5 145.6 865.2c95.5 95.5 219.5 145.6 353.2 145.6 62 0 124.1-11.9 181.4-33.4l19.1-7.2-26.4-69.2-16.7 4.8c-50.1 19.1-105 28.6-155.1 28.6-233.8 0-422.4-188.5-422.4-422.4 0-233.9 188.5-424.8 422.4-424.8 233.9 0 422.4 188.5 422.4 422.4 0 19.1-2.4 38.2-4.8 57.3-52.5 4.8-95.5 47.7-95.5 100.2 0 57.3 45.3 100.2 100.2 100.2 57.3 0 100.2-45.3 100.2-100.2 2.5-26.2-11.8-57.3-33.3-74z" p-id="8746"></path><path d="M577.5 345v307.8c0 19.1 14.3 33.4 33.4 33.4 9.5 0 19.1-4.8 23.9-9.5 4.8-4.8 9.5-14.3 9.5-23.9V345c0-19.1-14.3-33.4-33.4-33.4-16.7-0.1-33.4 14.3-33.4 33.4zM727.8 399.8c-19.1 0-33.4 14.3-33.4 33.4v128.9c0 19.1 14.3 33.4 33.4 33.4 9.5 0 16.7-4.8 23.9-9.5 7.2-4.8 9.5-14.3 9.5-23.9V433.3c0-19.1-16.7-33.5-33.4-33.5zM236.2 433.3v128.9c0 19.1 14.3 33.4 33.4 33.4 9.5 0 16.7-4.8 23.9-9.5 4.8-4.8 9.5-14.3 9.5-23.9V433.3c0-19.1-14.3-33.4-33.4-33.4-19-0.1-33.4 14.3-33.4 33.4zM465.3 254.3v484.4c0 19.1 14.3 33.4 33.4 33.4 19.1 0 33.4-14.3 33.4-33.4V254.3c0-19.1-14.3-33.4-33.4-33.4-19 2.4-33.4 16.7-33.4 33.4zM350.8 345v307.8c0 19.1 14.3 33.4 33.4 33.4 19.1 0 33.4-14.3 33.4-33.4V345c0-19.1-14.3-33.4-33.4-33.4-19.1-0.1-33.4 14.3-33.4 33.4z" p-id="8747"></path></svg>