<?xml version="1.0" standalone="no"?><!DOCTYPE svg PUBLIC "-//W3C//DTD SVG 1.1//EN" "http://www.w3.org/Graphics/SVG/1.1/DTD/svg11.dtd"><svg t="1644994963045" class="icon" viewBox="0 0 1026 1024" version="1.1" xmlns="http://www.w3.org/2000/svg" p-id="5030" xmlns:xlink="http://www.w3.org/1999/xlink" width="200.390625" height="200"><defs><style type="text/css"></style></defs><path d="M999.956685 771.072c-15.872-10.752-186.88-124.928-207.872-137.728-9.216-5.632-20.48-8.192-32.256-8.192-15.872 0-32.768 4.608-49.664 13.312-16.384 8.704-66.56 36.864-90.624 51.2-21.504-14.848-72.192-53.76-151.552-133.632C388.628685 477.184 349.204685 426.496 334.356685 404.48c13.824-24.576 42.496-74.24 50.688-90.624 16.384-30.72 18.432-61.952 5.12-82.944-12.8-19.456-125.952-191.488-137.728-207.36-11.264-15.36-30.72-23.552-52.224-23.552-16.896 0-34.816 5.12-50.176 15.872C148.500685 16.896-2.027315 125.952 0.020685 187.904c5.632 174.08 174.592 378.88 315.904 520.192s345.6 310.272 520.704 315.904h1.536c61.44 0 168.96-148.48 169.984-150.016 28.16-40.448 17.408-84.48-8.192-102.912z m-44.032 65.536c-40.448 56.32-98.304 114.688-120.832 123.392-119.808-5.632-288.256-111.104-474.112-296.96-186.368-186.368-291.328-354.304-296.96-473.6 8.192-22.528 66.56-80.384 122.368-120.832 4.096-3.072 9.216-4.608 13.824-4.608h2.56c17.92 26.112 114.688 172.032 132.096 199.68 0 3.072-1.024 10.24-6.144 20.48-5.632 11.264-24.064 43.52-49.664 88.576l-19.968 35.328 23.552 33.28c17.408 24.576 58.88 78.336 140.288 160.256 81.92 81.92 135.68 123.392 160.256 140.8l33.28 23.552 35.328-19.968c34.304-19.456 75.264-43.008 88.576-50.176 10.752-5.632 17.92-6.144 19.968-6.144h1.024c24.576 15.36 173.568 114.688 200.192 132.608-0.512 2.048-1.024 7.68-5.632 14.336z" p-id="5031"></path><path d="M987.156685 476.16c-16.896 0-30.72-13.824-30.72-30.72 0-207.872-168.96-376.832-376.832-376.832-16.896 0-30.72-13.824-30.72-30.72s13.824-30.72 30.72-30.72c241.664 0 438.272 196.608 438.272 438.272 0 16.896-13.824 30.72-30.72 30.72z" p-id="5032"></path><path d="M819.220685 476.672c-16.896 0-30.72-13.824-30.72-30.72 0-115.2-93.696-209.408-209.408-209.408-16.896 0-30.72-13.824-30.72-30.72s13.824-30.72 30.72-30.72c149.504 0 270.848 121.344 270.848 270.848 0 16.896-13.824 30.72-30.72 30.72z" p-id="5033"></path></svg>