<?xml version="1.0" standalone="no"?><!DOCTYPE svg PUBLIC "-//W3C//DTD SVG 1.1//EN" "http://www.w3.org/Graphics/SVG/1.1/DTD/svg11.dtd"><svg t="1638953378702" class="icon" viewBox="0 0 1024 1024" version="1.1" xmlns="http://www.w3.org/2000/svg" p-id="15363" xmlns:xlink="http://www.w3.org/1999/xlink" width="200" height="200"><defs><style type="text/css"></style></defs><path d="M841.442 70.82 186.058 70.82c-44.898 0-76.18 31.282-76.18 76.183l0 731.719c0 44.9 31.283 76.2 76.18 76.2l655.384 0c44.9 0 76.18-31.3 76.18-76.2L917.622 147.003C917.622 102.103 886.342 70.82 841.442 70.82zM622.982 106.35l81.3 0 0 142.281-40.65-40.65-40.65 40.65L622.982 106.35zM267.361 919.372l-81.303 0c-22.45 0-40.65-18.18-40.65-40.65L145.408 147.003c0-22.45 18.203-40.653 40.65-40.653l81.303 0L267.361 919.372zM882.092 878.722c0 22.47-18.2 40.65-40.65 40.65L302.893 919.372 302.893 106.35l284.558 0 0 243.908 76.18-81.303 76.18 81.303L739.811 106.35l101.63 0c22.45 0 40.65 18.203 40.65 40.653L882.091 878.722 882.092 878.722z" p-id="15364"></path></svg>