<?xml version="1.0" standalone="no"?><!DOCTYPE svg PUBLIC "-//W3C//DTD SVG 1.1//EN" "http://www.w3.org/Graphics/SVG/1.1/DTD/svg11.dtd"><svg t="1644820289789" class="icon" viewBox="0 0 1024 1024" version="1.1" xmlns="http://www.w3.org/2000/svg" p-id="1034" xmlns:xlink="http://www.w3.org/1999/xlink" width="200" height="200"><defs><style type="text/css"></style></defs><path d="M784.54057218 882.78857422H239.45942782A98.33576306 98.33576306 0 0 1 141.21142578 784.54057218V239.45942782A98.33576306 98.33576306 0 0 1 239.45942782 141.21142578h545.08114436A98.33576306 98.33576306 0 0 1 882.78857422 239.45942782v545.08114436A98.33576306 98.33576306 0 0 1 784.54057218 882.78857422zM239.45942782 185.09173044A54.45545841 54.45545841 0 0 0 185.09173044 239.45942782v545.08114436A54.45545841 54.45545841 0 0 0 239.45942782 838.90826956h545.08114436A54.45545841 54.45545841 0 0 0 838.90826956 784.54057218V239.45942782A54.45545841 54.45545841 0 0 0 784.54057218 185.09173044z" p-id="1035"></path><path d="M590.98454853 587.73740597c-12.11096437-6.93308804 2.7205786-54.85038083 9.74142767-66.82970438l114.08879167-195.39899638a25.494457 25.494457 0 0 1 34.62156044-9.21486374 24.96789306 24.96789306 0 0 1 9.39038503 34.0072362v0.26328161l-114.08879168 195.3989964c-6.97696854 12.02320334-41.55464847 48.70713834-53.66561284 41.77405029zM525.16409154 610.16024174h-263.28182795a21.94015233 21.94015233 0 0 1 0-43.88030466h263.28182795a21.94015233 21.94015233 0 0 1 0 43.88030466zM525.16409154 487.29538856h-263.28182795a21.94015233 21.94015233 0 0 1 0-43.88030466h263.28182795a21.94015233 21.94015233 0 0 1 0 43.88030466zM525.16409154 355.65447458h-263.28182795a21.94015233 21.94015233 0 0 1 0-43.88030466h263.28182795a21.94015233 21.94015233 0 0 1 0 43.88030466zM748.95364486 733.02509422h-487.07138127a21.94015233 21.94015233 0 0 1 0-43.88030467h487.07138127a21.94015233 21.94015233 0 0 1 0 43.88030467z" p-id="1036"></path></svg>